<svg width="540" height="540" viewBox="0 0 540 540" fill="none" xmlns="http://www.w3.org/2000/svg">
<rect width="540" height="540" fill="#20BEEF"/>
<mask id="mask0_1398_7439" style="mask-type:luminance" maskUnits="userSpaceOnUse" x="60" y="154" width="421" height="232">
<path fill-rule="evenodd" clip-rule="evenodd" d="M60.1487 154.288H480.148V385.714H60.1487V154.288Z" fill="white"/>
</mask>
<g mask="url(#mask0_1398_7439)">
<path fill-rule="evenodd" clip-rule="evenodd" d="M414.251 295.39C414.251 298.021 414.779 301.489 415.661 302.638L414.752 303.556C413.294 302.887 409.673 302.302 407.225 302.302H405.026C402.584 302.302 398.951 302.887 397.493 303.556L396.584 302.638C397.472 301.489 397.997 298.021 397.997 295.39V226.639H384.44V293.992C384.44 307.744 392.342 315.001 406.124 315.001C419.906 315.001 427.808 307.744 427.808 293.992V226.639H414.251V295.39ZM361.379 295.129C361.379 299.983 358.751 304.573 353.072 304.573C347.396 304.573 344.681 300.172 344.681 294.985V244.993C344.681 239.695 347.204 235.438 352.883 235.438C358.562 235.438 361.001 239.992 361.001 244.837V251.557H374.054V246.475C374.054 233.239 368.171 225.001 352.967 225.001C337.547 225.001 330.899 232.498 330.899 246.652V293.32C330.899 307.477 337.739 315.001 353.156 315.001C368.363 315.001 374.279 306.724 374.279 293.5V287.692H361.379V295.129ZM472.259 238.021H480.149V226.675H436.697V238.021H444.647C447.086 238.021 450.719 237.448 452.156 236.776L453.086 237.685C452.201 238.834 451.664 242.314 451.664 244.933V313.897H465.233V244.933C465.233 242.302 464.705 238.834 463.808 237.685L464.729 236.776C466.187 237.448 469.811 238.021 472.259 238.021ZM476.633 314.194C475.256 314.194 474.167 313.138 474.167 311.596C474.167 310.054 475.256 308.995 476.633 308.995C477.986 308.995 479.102 310.054 479.102 311.596C479.102 313.138 477.986 314.194 476.633 314.194ZM476.633 308.188C474.8 308.188 473.12 309.454 473.12 311.596C473.12 313.732 474.8 315.001 476.633 315.001C478.469 315.001 480.149 313.732 480.149 311.596C480.149 309.454 478.469 308.188 476.633 308.188ZM476.762 311.266H476.057V310.384H476.627C477.176 310.384 477.341 310.486 477.341 310.768C477.341 311.143 477.212 311.266 476.762 311.266ZM478.187 310.852C478.187 309.997 477.626 309.721 476.654 309.721H475.25V313.456H476.057V311.926H476.435L477.233 313.456H478.121L477.257 311.842C477.782 311.803 478.187 311.539 478.187 310.852ZM305.735 254.914C305.735 257.533 306.272 261.025 307.157 262.162L306.239 263.083C304.79 262.414 301.169 261.826 298.718 261.826H296.843C294.404 261.826 290.768 262.414 289.313 263.083L288.404 262.162C289.286 261.025 289.814 257.533 289.814 254.914V226.672H276.044V313.327H289.814V280.756C289.814 278.149 289.286 274.657 288.404 273.52L289.313 272.602C290.768 273.271 294.404 273.856 296.843 273.856H298.718C301.169 273.856 304.79 273.271 306.239 272.602L307.157 273.52C306.272 274.657 305.735 278.149 305.735 280.756V313.327H319.508V226.672H305.735V254.914ZM89.6867 261.433C89.6867 267.508 86.0747 271.285 81.6287 271.285H80.8457C78.2237 271.285 74.7437 271.825 73.6037 272.707L72.6827 271.789C73.3577 270.34 73.9367 266.716 73.9367 264.265V245.077C73.9367 242.638 73.3577 239.002 72.6827 237.568L73.6037 236.635C74.7437 237.517 78.2237 238.057 80.8457 238.057H81.6287C86.0747 238.057 89.6867 241.849 89.6867 247.909V261.433ZM82.8737 226.675H60.1487L60.1667 313.327H73.9367V281.926H82.4117C95.9567 281.926 103.247 274.012 103.247 261.73V246.463C103.247 234.196 96.4157 226.675 82.8737 226.675ZM142.907 295.39C142.907 298.021 143.438 301.489 144.32 302.638L143.408 303.556C141.956 302.887 138.326 302.302 135.881 302.302H133.679C131.234 302.302 127.604 302.887 126.152 303.556L125.237 302.638C126.122 301.489 126.656 298.021 126.656 295.39V226.639H113.099V293.992C113.099 307.744 120.995 315.001 134.777 315.001C148.559 315.001 156.461 307.744 156.461 293.992V226.639H142.907V295.39ZM198.515 262.903C198.515 269.563 199.691 281.806 200.813 287.26L198.878 287.641C197.63 282.07 195.257 274.333 193.352 268.282L180.248 226.675H167.477V313.327H179.909V277.108C179.909 270.448 178.724 258.193 177.602 252.751L179.537 252.37C180.785 257.941 183.158 265.666 185.066 271.729L198.17 313.327H210.938V226.675H198.515V262.903ZM252.578 295.129C252.578 299.983 249.947 304.573 244.283 304.573C238.604 304.573 235.892 300.172 235.892 294.985V244.993C235.892 239.695 238.415 235.438 244.094 235.438C249.758 235.438 252.197 239.992 252.197 244.837V251.557H265.25V246.475C265.25 233.239 259.379 225.001 244.163 225.001C228.746 225.001 222.116 232.498 222.116 246.652V293.32C222.116 307.477 228.935 315.001 244.355 315.001C259.571 315.001 265.49 306.724 265.49 293.5V287.692H252.578V295.129Z" fill="white"/>
</g>
</svg>
